<?xml version="1.0" encoding="UTF-8"?>
<svg xmlns="http://www.w3.org/2000/svg" viewBox="0 0 240 240" role="img" aria-labelledby="title desc">
  <title id="title">DV Monogram Logo</title>
  <desc id="desc">Geometric monogram forming the letters D and V inside a rounded hexagon with a soft gradient.</desc>
  <defs>
    <linearGradient id="g" x1="0" y1="0" x2="1" y2="1">
      <stop offset="0%" stop-color="#3B82F6"/>
      <stop offset="50%" stop-color="#06B6D4"/>
      <stop offset="100%" stop-color="#8B5CF6"/>
    </linearGradient>
    <filter id="soft" x="-20%" y="-20%" width="140%" height="140%">
      <feGaussianBlur in="SourceAlpha" stdDeviation="3" result="blur"/>
      <feOffset in="blur" dx="0" dy="2" result="off"/>
      <feMerge>
        <feMergeNode in="off"/>
        <feMergeNode in="SourceGraphic"/>
      </feMerge>
    </filter>
    <style>
      :root { --fg: white; }
      .stroke { stroke: var(--fg); stroke-width: 16; stroke-linecap: round; stroke-linejoin: round; fill: none; }
    </style>
  </defs>

  <!-- Rounded hexagon container -->
  <path d="M120 10
           L197 55
           a20 20 0 0 1 10 17
           v96
           a20 20 0 0 1 -10 17
           L120 230
           L43 185
           a20 20 0 0 1 -10 -17
           v-96
           a20 20 0 0 1 10 -17 Z"
        fill="url(#g)" filter="url(#soft)"/>

  <!-- D (arc) -->
  <path class="stroke" d="M80 75 v90 h30
                           a45 45 0 0 0 0 -90 h-30"/>
  <!-- V -->
  <path class="stroke" d="M130 75 l32 90 l32 -90"/>
</svg>
